$$  $$ $$$$$  $$$$$  $$$$$
$$  $$ $$  $$ $$  $$ $$  $$
$$$$$$ $$  $$ $$$$   $$$$ 
$$  $$ $$  $$ $$ $$  $$ $$
$$  $$ $$$$$  $$  $$ $$  $$
 HD DESI ROCKERS RELEASES

General
Complete name                    : PinkPanther2006[DvdRip]DualAudio[Eng-Hindi]-ahl07.mkv
Format                           : Matroska
File size                        : 832 MiB
Duration                         : 1h 28mn
Overall bit rate                 : 1 308 Kbps
Writing application              : AVI-Mux GUI 1.17.8.3, Feb 16 201019:42:50
Writing library                  : matroska muxer by Alexander Noe, build date Feb 16 2010

Video
ID                               : 1
Format                           : MPEG-4 Visual
Format profile                   : Advanced Simple@L5
Format settings, BVOP            : Yes
Format settings, QPel            : No
Format settings, GMC             : No warppoints
Format settings, Matrix          : Default (H.263)
Codec ID                         : DX50
Codec ID/Hint                    : DivX 5
Duration                         : 1h 28mn
Bit rate                         : 866 Kbps
Width                            : 512 pixels
Height                           : 270 pixels
Display aspect ratio             : 1.896
Frame rate                       : 25.000 fps
Original frame rate              : 23.976 fps
Color space                      : YUV
Chroma subsampling               : 4:2:0
Bit depth                        : 8 bits
Scan type                        : Progressive
Bits/(Pixel*Frame)               : 0.251
Stream size                      : 551 MiB (66%)
Writing library                  : XviD 1.0.3 (UTC 2004-12-20)

Audio #1
ID                               : 2
Format                           : AC-3
Format/Info                      : Audio Coding 3
Mode extension                   : CM (complete main)
Codec ID                         : A_AC3
Duration                         : 1h 28mn
Bit rate mode                    : Constant
Bit rate                         : 192 Kbps
Channel(s)                       : 2 channels
Channel positions                : Front: L R
Sampling rate                    : 48.0 KHz
Video delay                      : 558ms
Stream size                      : 122 MiB (15%)
Language                         : English

Audio #2
ID                               : 3
Format                           : MPEG Audio
Format version                   : Version 1
Format profile                   : Layer 3
Mode                             : Joint stereo
Codec ID                         : A_MPEG/L3
Codec ID/Hint                    : MP3
Duration                         : 1h 28mn
Bit rate mode                    : Constant
Bit rate                         : 224 Kbps
Channel(s)                       : 2 channels
Sampling rate                    : 48.0 KHz
Video delay                      : 3s 700ms
Stream size                      : 142 MiB (17%)
Language                         : Hindi



SCREENS
 
http://img809.imageshack.us/img809/8304/vlcsnap2010070119h43m33.png 
http://img30.imageshack.us/img30/4552/vlcsnap2010070119h43m55.png 
http://img514.imageshack.us/img514/6632/vlcsnap2010070119h44m27.png 
http://img205.imageshack.us/img205/5158/vlcsnap2010070119h44m37.png
